<svg xmlns="http://www.w3.org/2000/svg" viewBox="0 0 24 24" width="24" height="24" role="img" aria-labelledby="title">
  <title id="title">LinkedIn icon</title>
  <rect width="24" height="24" rx="4" fill="#1a1a1a"/>
  <path fill="#ff3b3b" d="M6.94 8.5H4.5V19h2.44V8.5zM5.72 7.42c.78 0 1.28-.52 1.28-1.17-.01-.66-.5-1.16-1.27-1.16-.77 0-1.28.5-1.28 1.16 0 .65.5 1.17 1.26 1.17zM13.26 12.53c0-.87.4-1.45 1.2-1.45.73 0 1.08.51 1.08 1.45V19H18V12.2c0-2.1-1.12-3.08-2.62-3.08-1.2 0-1.73.66-2.03 1.12v-0.96H10.9c.03.63 0 9.72 0 9.72h2.36v-6.47z"/>
</svg>

